<?xml version="1.0" encoding="UTF-8" standalone="no"?>
<svg
   xmlns:dc="http://purl.org/dc/elements/1.1/"
   xmlns:cc="http://creativecommons.org/ns#"
   xmlns:rdf="http://www.w3.org/1999/02/22-rdf-syntax-ns#"
   xmlns:svg="http://www.w3.org/2000/svg"
   xmlns="http://www.w3.org/2000/svg"
   xmlns:sodipodi="http://sodipodi.sourceforge.net/DTD/sodipodi-0.dtd"
   xmlns:inkscape="http://www.inkscape.org/namespaces/inkscape"
   version="1.1"
   width="24"
   height="24"
   viewBox="0 0 24 24"
   id="svg4"
   sodipodi:docname="account-multiple-check-outline.svg"
   inkscape:version="1.0.2 (e86c870879, 2021-01-15, custom)">
  <metadata
     id="metadata10">
    <rdf:RDF>
      <cc:Work
         rdf:about="">
        <dc:format>image/svg+xml</dc:format>
        <dc:type
           rdf:resource="http://purl.org/dc/dcmitype/StillImage" />
      </cc:Work>
    </rdf:RDF>
  </metadata>
  <defs
     id="defs8" />
  <sodipodi:namedview
     pagecolor="#ffffff"
     bordercolor="#666666"
     borderopacity="1"
     objecttolerance="10"
     gridtolerance="10"
     guidetolerance="10"
     inkscape:pageopacity="0"
     inkscape:pageshadow="2"
     inkscape:window-width="1366"
     inkscape:window-height="705"
     id="namedview6"
     showgrid="false"
     inkscape:zoom="22.416667"
     inkscape:cx="12"
     inkscape:cy="12"
     inkscape:window-x="-8"
     inkscape:window-y="-8"
     inkscape:window-maximized="1"
     inkscape:current-layer="svg4" />
  <path
     d="M13 11A3 3 0 1 0 10 8A3 3 0 0 0 13 11M13 7A1 1 0 1 1 12 8A1 1 0 0 1 13 7M17.11 10.86A5 5 0 0 0 17.11 5.14A2.91 2.91 0 0 1 18 5A3 3 0 0 1 18 11A2.91 2.91 0 0 1 17.11 10.86M13 13C7 13 7 17 7 17V19H19V17S19 13 13 13M9 17C9 16.71 9.32 15 13 15C16.5 15 16.94 16.56 17 17M24 17V19H21V17A5.6 5.6 0 0 0 19.2 13.06C24 13.55 24 17 24 17M7.34 8.92L8.5 10.33L3.75 15.08L1 12.08L2.16 10.92L3.75 12.5L7.34 8.92"
     id="path2"
     style="fill:#101010;fill-opacity:1" />
</svg>
